<?xml version="1.0" encoding="utf-8"?>
<!-- Generator: Adobe Illustrator 25.0.0, SVG Export Plug-In . SVG Version: 6.00 Build 0)  -->
<svg version="1.1" id="Layer_4" xmlns="http://www.w3.org/2000/svg" xmlns:xlink="http://www.w3.org/1999/xlink" x="0px" y="0px"
	 viewBox="0 0 223 139" style="enable-background:new 0 0 223 139;" xml:space="preserve">
<style type="text/css">
	.st0{fill:#57585A;}
	.st1{fill:#C8242F;}
	.st2{fill:#FFFFFF;}
</style>
<g>
	<g>
		<path class="st0" d="M190.5,46.5v46.1c0,2.9-1.5,5.5-4,6.9l-39.9,23c-2.5,1.4-5.5,1.4-8,0l-27.1-15.7l-12.8-7.4
			c-2.5-1.4-4-4.1-4-6.9V46.5c0-2.9,1.5-5.5,4-6.9l12.8-7.4l14.7-8.5l12.4-7.1c2.5-1.4,5.5-1.4,8,0l39.9,23
			C189,41,190.5,43.6,190.5,46.5z"/>
	</g>
	<g>
		<path class="st1" d="M128.3,46.5v46.1c0,2.9-1.5,5.5-4,6.9l-12.8,7.4l-27.1,15.7c-2.5,1.4-5.5,1.4-8,0l-39.9-23
			c-2.5-1.4-4-4.1-4-6.9V46.5c0-2.9,1.5-5.5,4-6.9L64,23.6l12.4-7.1c2.5-1.4,5.5-1.4,8,0l27.1,15.6l12.8,7.4
			C126.8,41,128.3,43.6,128.3,46.5z"/>
	</g>
	<g>
		<path class="st2" d="M143.9,55.4v28.1c0,2.9-1.5,5.5-4,6.9l-24.4,14.1c-2.5,1.4-5.5,1.4-8,0l-17-9.8l-7.4-4.2
			c-2.5-1.4-4-4.1-4-6.9V55.4c0-2.9,1.5-5.5,4-6.9l7.4-4.2l10-5.7l7-4.1c2.5-1.4,5.5-1.4,8,0l24.4,14.1
			C142.3,49.9,143.9,52.6,143.9,55.4z"/>
	</g>
	<g>
		<path class="st1" d="M118.1,64.8c0.7,4,0.9,8.6-2.9,14.8l-13.2,21.7l-5.4-3.1c4.9-8,12.9-21,16.2-26.4c1.7-2.8,1.8-4.8,1.5-6.8v0
			h0c-0.1-1.1-1.3-2-1.6-3.5c0,0,0,0,0,0c-0.7-4.1-0.7-8.8,3.3-15.4l5.1-8.4l5.3,3.1c-1.9,3.1-5,8.1-8.2,13.4
			c-1.9,3.1-2,5.1-1.7,7.2c0,0,0,0,0,0C116.6,62.3,117.8,63.5,118.1,64.8C118.1,64.8,118.1,64.8,118.1,64.8z"/>
	</g>
	<g>
		<path class="st0" d="M135.6,46.1l-5.3,8.8c-4,6.6-8.2,8.7-12.2,10c0,0,0,0,0,0h0c-1.4,0.4-2.8-0.2-3.8,0.2h0
			c-1.9,0.6-3.7,1.6-5.4,4.5c-3.2,5.2-11,18.2-16.1,26.6l-2.2-1.3l-3.1-1.8l13.4-22.1c3.8-6.2,8-8.2,11.8-9.4c0,0,0,0,0,0
			c1.3-0.4,2.9,0.2,3.8-0.2c0,0,0,0,0,0c2-0.7,3.8-1.8,5.6-4.8c3.2-5.3,6.4-10.4,8.3-13.4L135.6,46.1z"/>
	</g>
	<g>
		<path class="st2" d="M40.1,64.1h0.8l4.3,4.7l4.3-4.7l0.8,0c0.5,0,0.8,0.3,0.8,0.8v7c0,0.5-0.3,0.8-0.8,0.8c-0.5,0-0.8-0.3-0.8-0.8
			v-5.5l-4.3,4.7l-4.3-4.7l0,5.5c0,0.5-0.3,0.8-0.8,0.8c-0.5,0-0.8-0.3-0.8-0.8v-7C39.3,64.4,39.6,64.1,40.1,64.1z"/>
		<path class="st2" d="M53.4,64.1c0.5,0,0.8,0.3,0.8,0.8v6.2h6.2c0.5,0,0.8,0.3,0.8,0.8c0,0.5-0.3,0.8-0.8,0.8h-7
			c-0.5,0-0.8-0.3-0.8-0.8v-7C52.6,64.4,52.9,64.1,53.4,64.1z"/>
		<path class="st2" d="M64.7,64.1l6.6,0c1,0,1.6,0.5,1.6,1.6v0.4c0,0.5-0.3,0.8-0.8,0.8c-0.5,0-0.8-0.3-0.8-0.8v0
			c0-0.3-0.1-0.4-0.4-0.4l-5.9,0c-0.5,0-0.8,0.3-0.8,0.8v0.4c0,0.5,0.3,0.8,0.8,0.8H71c1.3,0,2,0.7,2,2l0,1.2c0,1.3-0.7,2-2,2h-6.6
			c-1,0-1.6-0.5-1.6-1.6v-0.4c0-0.5,0.3-0.8,0.8-0.8c0.5,0,0.8,0.3,0.8,0.8c0,0.3,0.1,0.4,0.4,0.4h5.9c0.5,0,0.8-0.3,0.8-0.8V70
			c0-0.5-0.3-0.8-0.8-0.8h-5.9c-1.3,0-2-0.7-2-2l0-1.2v0C62.8,64.8,63.4,64.1,64.7,64.1z"/>
	</g>
	<g>
		<path class="st2" d="M150.5,71.2l-0.9,1.6c-0.8,0-1.2-0.3-1.2-0.8l4.3-7.8h1.6l4.3,7.8c0,0.5-0.4,0.8-1.2,0.8l-0.9-1.6H150.5z
			 M155.7,69.6l-2.2-3.9l-2.2,3.9H155.7z"/>
		<path class="st2" d="M160.2,64.9c0-0.5,0.3-0.8,0.8-0.8h5.9c2.9,0,4.3,1.4,4.3,4.3v0c0,2.9-1.4,4.3-4.3,4.3H161
			c-0.5,0-0.8-0.3-0.8-0.8L160.2,64.9z M169.6,68.4c0-1.8-1-2.7-3.1-2.7h-4.7v5.5h4.7C168.5,71.2,169.6,70.3,169.6,68.4z"/>
		<path class="st2" d="M173.9,64.1l3.9,7l3.9-7c0.8,0,1.2,0.3,1.2,0.8l-4.3,7.8H177l-4.3-7.8C172.7,64.4,173.1,64.1,173.9,64.1z"/>
	</g>
</g>
</svg>
