<?xml version="1.0" encoding="utf-8"?>
<!-- Generator: Adobe Illustrator 25.0.0, SVG Export Plug-In . SVG Version: 6.00 Build 0)  -->
<svg version="1.1" id="Layer_3" xmlns="http://www.w3.org/2000/svg" xmlns:xlink="http://www.w3.org/1999/xlink" x="0px" y="0px"
	 viewBox="0 0 223 139" style="enable-background:new 0 0 223 139;" xml:space="preserve">
<style type="text/css">
	.st0{fill:#57585A;}
	.st1{fill:#C8242F;}
	.st2{fill:url(#SVGID_1_);}
	.st3{fill:url(#SVGID_2_);}
	.st4{fill:url(#SVGID_3_);}
</style>
<g>
	<g>
		<path class="st0" d="M190.5,46.5v46.1c0,2.9-1.5,5.5-4,6.9l-39.9,23c-2.5,1.4-5.5,1.4-8,0l-27.1-15.6l-4-2.3l-0.3-0.2l4.3-2.5
			l2.8,1.6l1.5,0.9l22.8,13.2c2.5,1.4,5.5,1.4,8,0L182.2,97c2.5-1.4,4-4.1,4-6.9V48.9c0-2.9-1.5-5.5-4-6.9l-35.6-20.6
			c-2.5-1.4-5.5-1.4-8,0l-10.9,6.3l-11.9,6.9v0l-1.5,0.9l-2.8,1.6l-4.3-2.5l0.3-0.2l4-2.3l14.7-8.5l12.4-7.1c2.5-1.4,5.5-1.4,8,0
			l39.9,23C189,41,190.5,43.6,190.5,46.5z"/>
	</g>
	<g>
		<path class="st1" d="M115.8,104.4l-0.3,0.2l-4,2.3l-27.1,15.6c-2.5,1.4-5.5,1.4-8,0l-39.9-23c-2.5-1.4-4-4.1-4-6.9V46.5
			c0-2.9,1.5-5.5,4-6.9L64,23.6l12.4-7.1c2.5-1.4,5.5-1.4,8,0l27.1,15.6l4,2.3l0.3,0.2v0l-1.5,0.9l-2.8,1.6l-4.3-2.5h0L84.4,21.4
			c-2.5-1.4-5.5-1.4-8,0l-10.9,6.3l-13.4,7.7L40.8,42c-2.5,1.4-4,4.1-4,6.9v41.1c0,2.9,1.5,5.5,4,6.9l11.3,6.5l24.3,14
			c2.5,1.4,5.5,1.4,8,0l22.8-13.2h0l4.3-2.5l2.8,1.6L115.8,104.4z"/>
	</g>
	<g>
		<path class="st0" d="M146.6,16.5l39.9,23c2.5,1.4,4,4.1,4,6.9v46.1c0,2.9-1.5,5.5-4,6.9l-39.9,23c-2.5,1.4-5.5,1.4-8,0l-27.1-15.6
			l-4-2.3l-0.3-0.2l4.3-2.5l2.8,1.6l1.5,0.9l22.8,13.2c2.5,1.4,5.5,1.4,8,0L182.2,97c2.5-1.4,4-4.1,4-6.9V48.9c0-2.9-1.5-5.5-4-6.9
			l-35.6-20.6V16.5z"/>
	</g>
	<g>
		<path class="st1" d="M76.4,122.5l-39.9-23c-2.5-1.4-4-4.1-4-6.9V46.5c0-2.9,1.5-5.5,4-6.9L64,23.6l12.4-7.1c2.5-1.4,5.5-1.4,8,0
			l27.1,15.6l4,2.3l0.3,0.2v0l-1.5,0.9l-2.8,1.6l-4.3-2.5h0L84.4,21.4c-2.5-1.4-5.5-1.4-8,0l-10.9,6.3l-13.4,7.7L40.8,42
			c-2.5,1.4-4,4.1-4,6.9v41.1c0,2.9,1.5,5.5,4,6.9l11.3,6.5l24.3,14V122.5z"/>
	</g>
	<linearGradient id="SVGID_1_" gradientUnits="userSpaceOnUse" x1="79.1373" y1="69.4989" x2="143.8559" y2="69.4989">
		<stop  offset="2.126661e-07" style="stop-color:#57585A"/>
		<stop  offset="0.2168" style="stop-color:#595759"/>
		<stop  offset="0.2948" style="stop-color:#605457"/>
		<stop  offset="0.3505" style="stop-color:#6B4F52"/>
		<stop  offset="0.3952" style="stop-color:#7C474C"/>
		<stop  offset="0.4226" style="stop-color:#8B4046"/>
		<stop  offset="0.5035" style="stop-color:#933C43"/>
		<stop  offset="0.5375" style="stop-color:#A3353D"/>
		<stop  offset="0.5898" style="stop-color:#B42D37"/>
		<stop  offset="0.6549" style="stop-color:#BF2832"/>
		<stop  offset="0.7463" style="stop-color:#C62530"/>
		<stop  offset="1" style="stop-color:#C8242F"/>
	</linearGradient>
	<path class="st2" d="M111.5,37.4c0.7,0,1.4,0.2,2,0.5L137.9,52c1.2,0.7,2,2,2,3.5v28.1c0,1.4-0.8,2.8-2,3.5l-24.4,14.1
		c-0.6,0.4-1.3,0.5-2,0.5c-0.7,0-1.4-0.2-2-0.5l-17-9.8L85.1,87c-1.2-0.7-2-2-2-3.5V55.4c0-1.4,0.8-2.8,2-3.5l7.4-4.2l10-5.7l7-4.1
		C110.1,37.6,110.8,37.4,111.5,37.4 M111.5,33.4c-1.4,0-2.8,0.4-4,1.1l-7,4.1l-10,5.7l-7.4,4.2c-2.5,1.4-4,4.1-4,6.9v28.1
		c0,2.9,1.5,5.5,4,6.9l7.4,4.2l17,9.8c1.2,0.7,2.6,1.1,4,1.1c1.4,0,2.8-0.4,4-1.1l24.4-14.1c2.5-1.4,4-4.1,4-6.9V55.4
		c0-2.9-1.5-5.5-4-6.9l-24.4-14.1C114.3,33.7,112.9,33.4,111.5,33.4L111.5,33.4z"/>
	<g>
		<path class="st1" d="M107.2,104.4"/>
	</g>
	<g>
		<path class="st0" d="M115.8,34.6"/>
	</g>
	<g>
		<linearGradient id="SVGID_2_" gradientUnits="userSpaceOnUse" x1="96.5696" y1="69.5014" x2="126.3696" y2="69.5014">
			<stop  offset="2.126661e-07" style="stop-color:#57585A"/>
			<stop  offset="0.2168" style="stop-color:#595759"/>
			<stop  offset="0.2948" style="stop-color:#605457"/>
			<stop  offset="0.3505" style="stop-color:#6B4F52"/>
			<stop  offset="0.3952" style="stop-color:#7C474C"/>
			<stop  offset="0.4226" style="stop-color:#8B4046"/>
			<stop  offset="0.5035" style="stop-color:#933C43"/>
			<stop  offset="0.5375" style="stop-color:#A3353D"/>
			<stop  offset="0.5898" style="stop-color:#B42D37"/>
			<stop  offset="0.6549" style="stop-color:#BF2832"/>
			<stop  offset="0.7463" style="stop-color:#C62530"/>
			<stop  offset="1" style="stop-color:#C8242F"/>
		</linearGradient>
		<path class="st3" d="M118.1,64.8c0.7,4,0.9,8.6-2.9,14.8l-13.2,21.7l-5.4-3.1c4.9-8,12.9-21,16.2-26.4c1.7-2.8,1.8-4.8,1.5-6.8v0
			h0c-0.1-1.1-1.3-2-1.6-3.5c0,0,0,0,0,0c-0.7-4.1-0.7-8.8,3.3-15.4l5.1-8.4l5.3,3.1c-1.9,3.1-5,8.1-8.2,13.4
			c-1.9,3.1-2,5.1-1.7,7.2c0,0,0,0,0,0C116.6,62.3,117.8,63.5,118.1,64.8C118.1,64.8,118.1,64.8,118.1,64.8z"/>
	</g>
	<g>
		<linearGradient id="SVGID_3_" gradientUnits="userSpaceOnUse" x1="87.3696" y1="69.5254" x2="135.6256" y2="69.5254">
			<stop  offset="2.126661e-07" style="stop-color:#57585A"/>
			<stop  offset="0.2168" style="stop-color:#595759"/>
			<stop  offset="0.2948" style="stop-color:#605457"/>
			<stop  offset="0.3505" style="stop-color:#6B4F52"/>
			<stop  offset="0.3952" style="stop-color:#7C474C"/>
			<stop  offset="0.4226" style="stop-color:#8B4046"/>
			<stop  offset="0.5035" style="stop-color:#933C43"/>
			<stop  offset="0.5375" style="stop-color:#A3353D"/>
			<stop  offset="0.5898" style="stop-color:#B42D37"/>
			<stop  offset="0.6549" style="stop-color:#BF2832"/>
			<stop  offset="0.7463" style="stop-color:#C62530"/>
			<stop  offset="1" style="stop-color:#C8242F"/>
		</linearGradient>
		<path class="st4" d="M135.6,46.1l-5.3,8.8c-4,6.6-8.2,8.7-12.2,10c0,0,0,0,0,0h0c-1.4,0.4-2.8-0.2-3.8,0.2h0
			c-1.9,0.6-3.7,1.6-5.4,4.5c-3.2,5.2-11,18.2-16.1,26.6l-2.2-1.3l-3.1-1.8l13.4-22.1c3.8-6.2,8-8.2,11.8-9.4c0,0,0,0,0,0
			c1.3-0.4,2.9,0.2,3.8-0.2c0,0,0,0,0,0c2-0.7,3.8-1.8,5.6-4.8c3.2-5.3,6.4-10.4,8.3-13.4L135.6,46.1z"/>
	</g>
	<g>
		<path class="st1" d="M41.7,64.1h0.8l4.3,4.7l4.3-4.7l0.8,0c0.5,0,0.8,0.3,0.8,0.8v7c0,0.5-0.3,0.8-0.8,0.8c-0.5,0-0.8-0.3-0.8-0.8
			v-5.5l-4.3,4.7l-4.3-4.7l0,5.5c0,0.5-0.3,0.8-0.8,0.8s-0.8-0.3-0.8-0.8v-7C40.9,64.4,41.2,64.1,41.7,64.1z"/>
		<path class="st1" d="M55,64.1c0.5,0,0.8,0.3,0.8,0.8v6.2H62c0.5,0,0.8,0.3,0.8,0.8s-0.3,0.8-0.8,0.8h-7c-0.5,0-0.8-0.3-0.8-0.8v-7
			C54.2,64.4,54.5,64.1,55,64.1z"/>
		<path class="st1" d="M66.3,64.1l6.6,0c1,0,1.6,0.5,1.6,1.6v0.4c0,0.5-0.3,0.8-0.8,0.8s-0.8-0.3-0.8-0.8v0c0-0.3-0.1-0.4-0.4-0.4
			l-5.9,0c-0.5,0-0.8,0.3-0.8,0.8v0.4c0,0.5,0.3,0.8,0.8,0.8h5.9c1.3,0,2,0.7,2,2l0,1.2c0,1.3-0.7,2-2,2h-6.6c-1,0-1.6-0.5-1.6-1.6
			v-0.4c0-0.5,0.3-0.8,0.8-0.8c0.5,0,0.8,0.3,0.8,0.8c0,0.3,0.1,0.4,0.4,0.4h5.9c0.5,0,0.8-0.3,0.8-0.8V70c0-0.5-0.3-0.8-0.8-0.8
			h-5.9c-1.3,0-2-0.7-2-2l0-1.2v0C64.4,64.8,65,64.1,66.3,64.1z"/>
	</g>
	<g>
		<path class="st0" d="M148.9,71.2l-0.9,1.6c-0.8,0-1.2-0.3-1.2-0.8l4.3-7.8h1.6l4.3,7.8c0,0.5-0.4,0.8-1.2,0.8l-0.9-1.6H148.9z
			 M154.1,69.6l-2.2-3.9l-2.2,3.9H154.1z"/>
		<path class="st0" d="M158.6,64.9c0-0.5,0.3-0.8,0.8-0.8h5.9c2.9,0,4.3,1.4,4.3,4.3v0c0,2.9-1.4,4.3-4.3,4.3h-5.9
			c-0.5,0-0.8-0.3-0.8-0.8L158.6,64.9z M168,68.4c0-1.8-1-2.7-3.1-2.7h-4.7v5.5h4.7C166.9,71.2,168,70.3,168,68.4z"/>
		<path class="st0" d="M172.3,64.1l3.9,7l3.9-7c0.8,0,1.2,0.3,1.2,0.8l-4.3,7.8h-1.6l-4.3-7.8C171.1,64.4,171.5,64.1,172.3,64.1z"/>
	</g>
</g>
</svg>
